<svg xmlns="http://www.w3.org/2000/svg" width="38" height="36" viewBox="0 0 38 36">
  <g id="gift-box" transform="translate(0 -18.911)">
    <g id="Group_2" data-name="Group 2" transform="translate(0 18.911)">
      <path id="Path_1" data-name="Path 1" d="M37.993,43.884a2.248,2.248,0,0,0-3.1-1.061l-.956.53V34.973A2.006,2.006,0,0,0,35.3,33.056v-4.41a1.989,1.989,0,0,0-1.963-2.008H27.91a4.5,4.5,0,0,0,3.037-3.811,3.24,3.24,0,0,0-1.83-3.107c-.733-.341-2.719-.856-5.245,1.622A12.938,12.938,0,0,0,21.1,25.426a13.189,13.189,0,0,0-2.771-4.084c-2.526-2.485-4.512-1.963-5.245-1.622a3.247,3.247,0,0,0-1.845,3.107,4.513,4.513,0,0,0,3.037,3.811H9.731a1.989,1.989,0,0,0-1.963,2.008v4.41a2.014,2.014,0,0,0,1.371,1.917v6.691l-1.659.682A1.475,1.475,0,0,0,6.2,41.6H1.989A1.5,1.5,0,0,0,.5,43.119V53.356a1.506,1.506,0,0,0,1.489,1.523H6.2a1.487,1.487,0,0,0,1.3-.773l2.867.993a4.167,4.167,0,0,0,1.459.25H24.088a3.558,3.558,0,0,0,2.03-.614l11.349-7.418A2.53,2.53,0,0,0,37.993,43.884ZM26.614,47.423a3.058,3.058,0,0,1-1.556.417h-.207l.081-.053a2.466,2.466,0,0,0,1-2.758,2.4,2.4,0,0,0-2.3-1.766H21.687v-8.2h11.06v8.949Zm7.5-18.777v4.41a.787.787,0,0,1-.778.8H21.687V27.919c1.141.265,1.882,1.3,2.726,2.463a10.845,10.845,0,0,0,1.852,2.144.567.567,0,0,0,.37.129.584.584,0,0,0,.467-.227.612.612,0,0,0-.1-.849,9.909,9.909,0,0,1-1.63-1.917A13.087,13.087,0,0,0,23.9,27.85h9.453A.785.785,0,0,1,34.118,28.646ZM24.688,22.22a4.692,4.692,0,0,1,3.052-1.576,2.108,2.108,0,0,1,.889.189,2.014,2.014,0,0,1,1.133,1.947c-.052,1.22-1.052,2.3-2.682,2.887a18.925,18.925,0,0,1-5.163.932,11.966,11.966,0,0,1,2.771-4.38Zm-12.261.561a2.014,2.014,0,0,1,1.133-1.947,2.061,2.061,0,0,1,.889-.189,4.641,4.641,0,0,1,3.045,1.584A11.893,11.893,0,0,1,20.272,26.6a18.87,18.87,0,0,1-5.163-.932C13.479,25.077,12.479,24,12.427,22.781ZM8.953,28.646a.787.787,0,0,1,.778-.8H18.3a13.176,13.176,0,0,0-1.482,1.811,9.94,9.94,0,0,1-1.63,1.917.613.613,0,0,0-.1.849.584.584,0,0,0,.467.227.629.629,0,0,0,.37-.129,11.064,11.064,0,0,0,1.852-2.144c.845-1.167,1.585-2.2,2.726-2.463v5.933H9.731a.787.787,0,0,1-.778-.8Zm1.371,6.418H20.5V43.27H18.094a1.949,1.949,0,0,1-.985-.25L13.59,41.1a3.075,3.075,0,0,0-2.734-.152l-.533.22ZM6.2,53.666H1.989a.314.314,0,0,1-.3-.311V43.119a.314.314,0,0,1,.3-.311H6.2a.314.314,0,0,1,.3.311V53.348A.315.315,0,0,1,6.2,53.666ZM36.83,46.294,25.48,53.719a2.434,2.434,0,0,1-1.393.424H11.835a3.092,3.092,0,0,1-1.082-.182L7.693,52.9V43.558L11.3,42.073a1.918,1.918,0,0,1,1.734.1l3.519,1.917a3.115,3.115,0,0,0,1.541.394h5.534a1.187,1.187,0,0,1,1.163.894,1.226,1.226,0,0,1-.511,1.394l-1.163.765a1.723,1.723,0,0,1-1.015.3H16.894a.606.606,0,0,0,0,1.212h8.156a4.248,4.248,0,0,0,2.119-.561l8.275-4.607c.837-.47,1.415.432,1.519.614.3.493.5,1.387-.133,1.8Z" transform="translate(-0.461 -19.387)"/>
      <path id="Path_2" data-name="Path 2" d="M23.627,54.911H11.365a4.2,4.2,0,0,1-1.472-.252l-2.838-.983a1.531,1.531,0,0,1-1.313.765H1.526A1.546,1.546,0,0,1,0,52.88V42.643a1.564,1.564,0,0,1,.45-1.106,1.473,1.473,0,0,1,1.076-.447H5.734a1.5,1.5,0,0,1,1.3.733l1.607-.66V34.524a2.065,2.065,0,0,1-1.371-1.945v-4.41a2.026,2.026,0,0,1,2-2.046h4.373a4.472,4.472,0,0,1-2.9-3.772,3.288,3.288,0,0,1,1.867-3.143c.741-.345,2.741-.876,5.286,1.629a13.146,13.146,0,0,1,2.745,4.018,12.9,12.9,0,0,1,2.745-4.018c2.551-2.5,4.547-1.973,5.286-1.629a3.28,3.28,0,0,1,1.852,3.143,4.456,4.456,0,0,1-2.9,3.772H32.88a2.026,2.026,0,0,1,2,2.046v4.41a2.038,2.038,0,0,1-1.371,1.945v8.29l.9-.5a2.284,2.284,0,0,1,3.154,1.075,2.569,2.569,0,0,1-.538,3.484l-11.35,7.419a3.593,3.593,0,0,1-2.05.62ZM7.021,53.584l2.9,1a4.126,4.126,0,0,0,1.448.248H23.627a3.523,3.523,0,0,0,2.01-.608l11.35-7.419a2.494,2.494,0,0,0,.514-3.381h0a2.214,2.214,0,0,0-3.055-1.047l-1.01.561V34.469l.026-.008a1.962,1.962,0,0,0,1.345-1.881v-4.41A1.951,1.951,0,0,0,32.88,26.2H27.267l.169-.073a4.443,4.443,0,0,0,3.015-3.778,3.2,3.2,0,0,0-1.808-3.071c-.726-.337-2.686-.856-5.2,1.615a12.828,12.828,0,0,0-2.763,4.072l-.034.079-.034-.079a13.076,13.076,0,0,0-2.763-4.072c-2.513-2.472-4.477-1.953-5.2-1.614a3.212,3.212,0,0,0-1.823,3.071,4.46,4.46,0,0,0,3.015,3.778L14,26.2H9.268a1.951,1.951,0,0,0-1.926,1.97v4.41a1.988,1.988,0,0,0,1.345,1.881l.026.008v6.744L7,41.917l-.016-.028a1.433,1.433,0,0,0-1.25-.724H1.526A1.4,1.4,0,0,0,.5,41.591a1.488,1.488,0,0,0-.428,1.052V52.88a1.471,1.471,0,0,0,1.452,1.485H5.742a1.459,1.459,0,0,0,1.264-.754Zm16.605.122H11.373a3.147,3.147,0,0,1-1.094-.184l-3.085-1.07v-9.4l3.631-1.495a1.962,1.962,0,0,1,1.765.1l3.519,1.917a3.079,3.079,0,0,0,1.524.39h5.534a1.23,1.23,0,0,1,1.2.921,1.266,1.266,0,0,1-.527,1.437l-1.163.765a1.764,1.764,0,0,1-1.035.309H16.433a.568.568,0,0,0,0,1.137H24.59a4.21,4.21,0,0,0,2.1-.556l8.275-4.607c.891-.5,1.5.511,1.569.628.293.487.513,1.419-.145,1.847L25.04,53.276a2.465,2.465,0,0,1-1.413.43ZM7.268,52.4,10.3,53.45a3.036,3.036,0,0,0,1.07.18H23.627A2.4,2.4,0,0,0,25,53.212l11.35-7.426c.613-.4.4-1.281.122-1.744-.1-.181-.657-1.056-1.469-.6l-8.276,4.607a4.28,4.28,0,0,1-2.137.565H16.433a.644.644,0,0,1,0-1.288h5.208a1.7,1.7,0,0,0,.995-.3l1.163-.765a1.19,1.19,0,0,0,.5-1.352,1.157,1.157,0,0,0-1.128-.867H17.633a3.149,3.149,0,0,1-1.558-.4l-3.519-1.917a1.892,1.892,0,0,0-1.7-.1L7.268,43.108Zm-1.526.83H1.526a.349.349,0,0,1-.341-.349V42.643a.349.349,0,0,1,.341-.349H5.742a.349.349,0,0,1,.341.349v10.23A.353.353,0,0,1,5.742,53.229ZM1.526,42.37a.277.277,0,0,0-.267.273V52.88a.277.277,0,0,0,.267.273H5.742a.277.277,0,0,0,.267-.28V42.643a.277.277,0,0,0-.267-.273H1.526ZM24.6,47.4h-.335l.189-.123a2.431,2.431,0,0,0,.985-2.716,2.358,2.358,0,0,0-2.269-1.738H21.189V34.55H32.325v9.01l-.019.011-6.135,3.41A3.088,3.088,0,0,1,24.6,47.4Zm-.081-.076H24.6a3.02,3.02,0,0,0,1.538-.412l6.115-3.4V34.625H21.263v8.123h1.9a2.432,2.432,0,0,1,2.34,1.793,2.507,2.507,0,0,1-.991,2.784Zm-4.438-4.493H17.633a1.985,1.985,0,0,1-1-.255L13.111,40.66a3.047,3.047,0,0,0-2.7-.15l-.584.241v-6.2H20.078Zm-8.465-2.644a3.178,3.178,0,0,1,1.533.405l3.519,1.917a1.916,1.916,0,0,0,.968.246H20V34.626H9.9v6.014l.483-.2A3.217,3.217,0,0,1,11.613,40.188ZM32.88,33.413H21.189V27.394l.045.011c1.149.267,1.884,1.283,2.735,2.459l.051.07a10.567,10.567,0,0,0,1.808,2.085.534.534,0,0,0,.348.121.545.545,0,0,0,.438-.213.589.589,0,0,0,.116-.419.55.55,0,0,0-.206-.376,9.847,9.847,0,0,1-1.637-1.925l-.025-.034A12.751,12.751,0,0,0,23.409,27.4l-.069-.066h9.548a.822.822,0,0,1,.807.834v4.41a.825.825,0,0,1-.815.833Zm-11.617-.076H32.88a.75.75,0,0,0,.741-.758v-4.41a.747.747,0,0,0-.733-.758H23.527a13.353,13.353,0,0,1,1.394,1.716l.025.034a9.794,9.794,0,0,0,1.623,1.91.625.625,0,0,1,.234.427.666.666,0,0,1-.132.474.617.617,0,0,1-.5.242.605.605,0,0,1-.394-.137,10.619,10.619,0,0,1-1.821-2.1l-.051-.07c-.831-1.148-1.55-2.142-2.647-2.419v5.848Zm-1.178.076H9.268a.825.825,0,0,1-.815-.834v-4.41a.825.825,0,0,1,.815-.834h8.666l-.069.066a12.6,12.6,0,0,0-1.425,1.734l-.11.151a9.537,9.537,0,0,1-1.58,1.846.553.553,0,0,0-.206.373.582.582,0,0,0,.116.423.545.545,0,0,0,.438.213.6.6,0,0,0,.349-.122,10.984,10.984,0,0,0,1.835-2.123l.023-.031c.851-1.176,1.586-2.192,2.735-2.459l.045-.011Zm-10.817-6a.75.75,0,0,0-.741.758v4.41a.75.75,0,0,0,.741.758H20.011V27.49c-1.1.277-1.815,1.271-2.646,2.419l-.023.031a11.04,11.04,0,0,1-1.849,2.139.662.662,0,0,1-.394.137.617.617,0,0,1-.5-.242.66.66,0,0,1-.131-.479.628.628,0,0,1,.234-.423,9.493,9.493,0,0,0,1.566-1.831l.11-.151a13.235,13.235,0,0,1,1.366-1.678Zm10.6-1.247-.056,0a18.963,18.963,0,0,1-5.174-.934c-1.642-.6-2.654-1.688-2.707-2.921a2.051,2.051,0,0,1,1.155-1.984,2.109,2.109,0,0,1,.9-.193,4.712,4.712,0,0,1,3.071,1.594,11.965,11.965,0,0,1,2.787,4.387Zm-5.877-5.959a2.038,2.038,0,0,0-.874.186A1.976,1.976,0,0,0,12,22.3c.051,1.2,1.044,2.268,2.657,2.853a18.806,18.806,0,0,0,5.1.927,11.887,11.887,0,0,0-2.75-4.3A4.642,4.642,0,0,0,13.988,20.205ZM21.4,26.165l.019-.054a12.026,12.026,0,0,1,2.78-4.394h0a4.7,4.7,0,0,1,3.078-1.587,2.157,2.157,0,0,1,.9.193,2.051,2.051,0,0,1,1.155,1.984c-.053,1.241-1.065,2.333-2.707,2.921a19.052,19.052,0,0,1-5.174.934Zm2.85-4.394a11.958,11.958,0,0,0-2.743,4.311,18.9,18.9,0,0,0,5.1-.927c1.613-.577,2.606-1.644,2.657-2.853a1.975,1.975,0,0,0-1.112-1.911,2.085,2.085,0,0,0-.874-.186,4.635,4.635,0,0,0-3.027,1.566Z" transform="translate(0 -18.911)"/>
    </g>
  </g>
</svg>
